<svg xmlns="http://www.w3.org/2000/svg" xmlns:xlink="http://www.w3.org/1999/xlink" viewBox="0 0 512 512" id="development">
  <defs>
    <linearGradient id="a" x1="256" x2="256" y1="502" y2="19.934" gradientTransform="matrix(1 0 0 -1 0 514)" gradientUnits="userSpaceOnUse">
      <stop offset="0" stop-color="#00efd1"></stop>
      <stop offset="1" stop-color="#00acea"></stop>
    </linearGradient>
    <linearGradient xlink:href="#a" id="b" x1="252.92" x2="252.92" y2="19.934"></linearGradient>
    <linearGradient xlink:href="#a" id="c" x1="206.728" x2="206.728" y2="19.934"></linearGradient>
    <linearGradient xlink:href="#a" id="d" x1="236" x2="236" y2="19.934"></linearGradient>
    <linearGradient xlink:href="#a" id="e" x1="236.125" x2="236.125" y2="19.934"></linearGradient>
  </defs>
  <g>
    <path fill="url(#a)" d="M336.156,21.094A10.06,10.06,0,0,0,328.98,18H116.23A50.355,50.355,0,0,0,66,68.118V443.882A50.355,50.355,0,0,0,116.23,494H395.77A50.355,50.355,0,0,0,446,443.882V138.132a10.177,10.177,0,0,0-2.94-6.994ZM339,52.777,412.126,128H348.98a9.884,9.884,0,0,1-9.98-9.785V52.777ZM395.77,474H116.23A30.333,30.333,0,0,1,86,443.882V68.118A30.333,30.333,0,0,1,116.23,38H319v80.132A29.9,29.9,0,0,0,348.932,148H426V443.882A30.333,30.333,0,0,1,395.77,474Z"></path>
    <path fill="url(#b)" d="M368.021,400H137.82a10,10,0,1,0,0,20h230.2a10,10,0,0,0,0-20Z"></path>
    <path fill="url(#c)" d="M137.82,366H275.636a10,10,0,0,0,0-20H137.82a10,10,0,0,0,0,20Z"></path>
    <path fill="url(#d)" d="M139.246,245.985l13.971,1.337a86.035,86.035,0,0,0,6.5,15.342l-8.741,10.586a10,10,0,0,0,.644,13.449l19.8,19.8a10,10,0,0,0,13.453.631l10.628-8.8a87.109,87.109,0,0,0,15.3,6.472l1.338,14.02A10.126,10.126,0,0,0,222.094,328h28.062a10.125,10.125,0,0,0,9.954-9.184l1.337-13.939a85.9,85.9,0,0,0,15.342-6.484l10.587,8.749a10,10,0,0,0,13.449-.639l19.794-19.8a10,10,0,0,0,.631-13.452l-8.8-10.628a87.025,87.025,0,0,0,6.475-15.309l13.841-1.331A10.181,10.181,0,0,0,342,236.031V207.969a10.181,10.181,0,0,0-9.246-9.954l-13.971-1.337a86.035,86.035,0,0,0-6.5-15.342l8.741-10.586a10,10,0,0,0-.6-13.4l-19.55-19.8a10,10,0,0,0-13.5-.676l-10.629,8.8a87.077,87.077,0,0,0-15.3-6.472l-1.338-14.02A10.127,10.127,0,0,0,250.156,116H222.094a10.127,10.127,0,0,0-9.954,9.184l-1.34,13.939a85.971,85.971,0,0,0-15.342,6.484l-10.586-8.749a10,10,0,0,0-13.449.639l-19.794,19.8a10,10,0,0,0-.629,13.45l8.8,10.628a87.184,87.184,0,0,0-6.472,15.3l-14.083,1.338A10.181,10.181,0,0,0,130,207.969v28.062A10.181,10.181,0,0,0,139.246,245.985ZM150,217.051l11.962-1.133a10.117,10.117,0,0,0,8.917-7.84,67.443,67.443,0,0,1,9.455-22.249,10,10,0,0,0-.676-11.8l-7.46-9.024,6.926-6.919,9.027,7.473a10,10,0,0,0,11.927.618,65.058,65.058,0,0,1,22.124-9.32,10.165,10.165,0,0,0,7.841-8.958l1.134-11.9h9.9l1.133,11.9a10.084,10.084,0,0,0,7.841,8.886,67.427,67.427,0,0,1,22.249,9.439,10,10,0,0,0,11.8-.683l8.979-7.427,6.751,6.842-7.51,9.071a10,10,0,0,0-.618,11.926,65.058,65.058,0,0,1,9.32,22.124,10.237,10.237,0,0,0,9.02,7.841L322,217.051v9.908l-11.723,1.124a10.118,10.118,0,0,0-8.906,7.839,67.42,67.42,0,0,1-9.454,22.249,10,10,0,0,0,.675,11.8l7.46,9.024-6.925,6.919-9.028-7.473a10,10,0,0,0-11.926-.618,65.058,65.058,0,0,1-22.124,9.32,10.165,10.165,0,0,0-7.841,8.958L241.074,308h-9.9l-1.134-11.9a10.079,10.079,0,0,0-7.84-8.886,67.406,67.406,0,0,1-22.249-9.439,10,10,0,0,0-11.8.683l-9.024,7.464L172.211,279l7.473-9.027a10,10,0,0,0,.618-11.926,65.058,65.058,0,0,1-9.32-22.124,10.24,10.24,0,0,0-9.02-7.841L150,226.949Z"></path>
    <path fill="url(#e)" d="M236.125,265.617A43.617,43.617,0,1,0,192.508,222,43.617,43.617,0,0,0,236.125,265.617Zm0-67.234A23.617,23.617,0,1,1,212.508,222,23.617,23.617,0,0,1,236.125,198.383Z"></path>
  </g>
</svg>